<svg width="35" height="40" viewBox="0 0 35 40" fill="none" xmlns="http://www.w3.org/2000/svg">
<path d="M5.69444 15C5.69444 10.286 5.69444 7.92893 6.94534 6.46447C8.19624 5 10.2095 5 14.2361 5H19.9306C23.9571 5 25.9704 5 27.2213 6.46447C28.4722 7.92893 28.4722 10.286 28.4722 15V26.3793C28.4722 30.8515 28.4722 33.0876 27.2703 33.7715C26.0683 34.4554 24.5665 33.0739 21.5628 30.3109L20.6015 29.4267C18.9125 27.8731 18.0681 27.0963 17.0833 27.0963C16.0986 27.0963 15.2541 27.8731 13.5652 29.4267L12.6039 30.3109C9.60019 33.0739 8.09834 34.4554 6.89639 33.7715C5.69444 33.0876 5.69444 30.8515 5.69444 26.3793V15Z" stroke="#8B8B8B" stroke-width="3" fill="#000"/>
</svg>
