<svg width="205" height="25" viewBox="0 0 205 25" fill="none" xmlns="http://www.w3.org/2000/svg">
<path d="M11.512 18H0.28V1.584H11.032V2.952H1.744V8.64H9.352V10.008H1.744V16.632H11.512V18ZM17.0506 18.24C16.5066 18.24 15.9946 18.168 15.5146 18.024C15.0506 17.88 14.6426 17.664 14.2906 17.376C13.9546 17.088 13.6906 16.728 13.4986 16.296C13.3066 15.864 13.2106 15.368 13.2106 14.808C13.2106 14.136 13.3546 13.576 13.6426 13.128C13.9466 12.68 14.3386 12.32 14.8186 12.048C15.2986 11.76 15.8346 11.56 16.4266 11.448C17.0346 11.336 17.6506 11.28 18.2746 11.28H20.6026V9.936C20.6026 8.944 20.4026 8.216 20.0026 7.752C19.6026 7.288 18.9706 7.056 18.1066 7.056C17.4666 7.056 16.8186 7.192 16.1626 7.464C15.5066 7.736 14.9706 8.032 14.5546 8.352L13.9066 7.344C14.3706 6.928 14.9786 6.568 15.7306 6.264C16.4986 5.96 17.2906 5.808 18.1066 5.808C19.4506 5.808 20.4186 6.152 21.0106 6.84C21.6186 7.512 21.9226 8.456 21.9226 9.672V14.544C21.9226 15.776 22.2346 16.728 22.8586 17.4L22.0426 18.192C21.7066 17.936 21.4426 17.648 21.2506 17.328C21.0586 16.992 20.9066 16.64 20.7946 16.272C20.4906 16.88 20.0266 17.36 19.4026 17.712C18.7786 18.064 17.9946 18.24 17.0506 18.24ZM17.0506 16.992C17.5306 16.992 17.9786 16.928 18.3946 16.8C18.8106 16.656 19.1786 16.456 19.4986 16.2C19.8346 15.944 20.0986 15.624 20.2906 15.24C20.4826 14.856 20.5866 14.416 20.6026 13.92V12.504H18.2746C17.8266 12.504 17.3786 12.536 16.9306 12.6C16.4986 12.648 16.1066 12.76 15.7546 12.936C15.4026 13.096 15.1146 13.328 14.8906 13.632C14.6826 13.936 14.5786 14.328 14.5786 14.808C14.5786 15.608 14.7946 16.176 15.2266 16.512C15.6586 16.832 16.2666 16.992 17.0506 16.992ZM25.5991 15.84C26.0151 16.112 26.5191 16.376 27.1111 16.632C27.7191 16.872 28.4071 16.992 29.1751 16.992C29.5111 16.992 29.8311 16.96 30.1351 16.896C30.4551 16.816 30.7351 16.704 30.9751 16.56C31.2151 16.4 31.3991 16.192 31.5271 15.936C31.6711 15.68 31.7431 15.368 31.7431 15C31.7431 14.44 31.5911 14 31.2871 13.68C30.9831 13.36 30.5991 13.096 30.1351 12.888C29.6871 12.664 29.1991 12.464 28.6711 12.288C28.1431 12.112 27.6471 11.888 27.1831 11.616C26.7351 11.328 26.3591 10.96 26.0551 10.512C25.7511 10.064 25.5991 9.464 25.5991 8.712C25.5991 8.328 25.6791 7.96 25.8391 7.608C25.9991 7.256 26.2311 6.952 26.5351 6.696C26.8391 6.424 27.2071 6.208 27.6391 6.048C28.0711 5.888 28.5591 5.808 29.1031 5.808C29.5831 5.808 30.0471 5.824 30.4951 5.856C30.9431 5.872 31.4391 5.904 31.9831 5.952V7.2C30.7351 7.104 29.7191 7.056 28.9351 7.056C28.3111 7.056 27.8311 7.224 27.4951 7.56C27.1591 7.896 26.9911 8.28 26.9911 8.712C26.9911 9.272 27.1431 9.712 27.4471 10.032C27.7511 10.336 28.1271 10.6 28.5751 10.824C29.0391 11.032 29.5351 11.232 30.0631 11.424C30.5911 11.6 31.0791 11.832 31.5271 12.12C31.9911 12.392 32.3751 12.752 32.6791 13.2C32.9831 13.648 33.1351 14.248 33.1351 15C33.1351 15.592 33.0151 16.096 32.7751 16.512C32.5511 16.912 32.2391 17.24 31.8391 17.496C31.4551 17.752 31.0151 17.936 30.5191 18.048C30.0231 18.176 29.5111 18.24 28.9831 18.24C28.1831 18.24 27.4311 18.104 26.7271 17.832C26.0231 17.56 25.4231 17.232 24.9271 16.848L25.5991 15.84ZM36.7349 23.088C37.6149 23.088 38.2869 22.92 38.7509 22.584C39.2309 22.248 39.5749 21.776 39.7829 21.168L40.6949 18.312C39.8309 18.216 39.1429 17.88 38.6309 17.304C38.1189 16.712 37.7349 15.976 37.4789 15.096L34.9589 6.288L36.2549 5.928L38.7749 14.736C38.9669 15.408 39.2389 15.96 39.5909 16.392C39.9589 16.824 40.4469 17.08 41.0549 17.16L44.6549 5.928L45.9029 6.336L41.0309 21.6C40.7589 22.448 40.2869 23.104 39.6149 23.568C38.9429 24.032 38.0389 24.264 36.9029 24.264L36.7349 23.088ZM67.0332 2.952H61.2972V18H59.8332V2.952H54.0972V1.584H67.0332V2.952ZM73.1716 18.24C72.2756 18.24 71.4596 18.088 70.7236 17.784C69.9876 17.48 69.3556 17.056 68.8276 16.512C68.3156 15.952 67.9156 15.296 67.6276 14.544C67.3396 13.792 67.1956 12.968 67.1956 12.072C67.1956 11.176 67.3396 10.352 67.6276 9.6C67.9156 8.832 68.3156 8.168 68.8276 7.608C69.3556 7.048 69.9876 6.608 70.7236 6.288C71.4596 5.968 72.2756 5.808 73.1716 5.808C74.0676 5.808 74.8756 5.968 75.5956 6.288C76.3316 6.592 76.9556 7.024 77.4676 7.584C77.9956 8.128 78.4036 8.784 78.6916 9.552C78.9796 10.304 79.1236 11.12 79.1236 12C79.1236 12.896 78.9796 13.728 78.6916 14.496C78.4036 15.264 77.9956 15.928 77.4676 16.488C76.9556 17.032 76.3316 17.464 75.5956 17.784C74.8756 18.088 74.0676 18.24 73.1716 18.24ZM73.1716 7.056C72.4676 7.056 71.8356 7.176 71.2756 7.416C70.7156 7.656 70.2276 7.992 69.8116 8.424C69.4116 8.856 69.0996 9.376 68.8756 9.984C68.6676 10.592 68.5636 11.264 68.5636 12C68.5636 12.752 68.6676 13.44 68.8756 14.064C69.0996 14.672 69.4116 15.192 69.8116 15.624C70.2276 16.056 70.7156 16.392 71.2756 16.632C71.8356 16.872 72.4676 16.992 73.1716 16.992C73.8596 16.992 74.4836 16.872 75.0436 16.632C75.6196 16.376 76.1076 16.032 76.5076 15.6C76.9076 15.152 77.2116 14.624 77.4196 14.016C77.6436 13.392 77.7556 12.704 77.7556 11.952C77.7556 11.216 77.6436 10.552 77.4196 9.96C77.2116 9.352 76.9076 8.832 76.5076 8.4C76.1076 7.968 75.6196 7.64 75.0436 7.416C74.4836 7.176 73.8596 7.056 73.1716 7.056ZM100.039 13.08C99.4632 12.968 98.9352 12.8 98.4552 12.576C97.9752 12.336 97.5352 12.08 97.1352 11.808C96.7352 11.52 96.3752 11.224 96.0552 10.92C95.7352 10.6 95.4552 10.296 95.2152 10.008L92.8632 7.104C92.5912 6.784 92.2952 6.4 91.9752 5.952C91.6712 5.504 91.3832 5.064 91.1112 4.632C91.1592 5.032 91.1992 5.456 91.2312 5.904C91.2792 6.336 91.3032 6.736 91.3032 7.104V18H89.8392V1.368H90.2952L96.6792 9.504C96.7912 9.68 96.9592 9.872 97.1832 10.08L104.359 1.368H104.815V18H103.351V7.104C103.351 6.704 103.367 6.256 103.399 5.76C103.447 5.248 103.495 4.784 103.543 4.368C103.207 4.832 102.855 5.32 102.487 5.832C102.119 6.328 101.783 6.752 101.479 7.104L98.2152 10.968C98.5352 11.192 98.8712 11.4 99.2232 11.592C99.5912 11.768 99.9832 11.904 100.399 12L100.039 13.08ZM111.93 18.24C111.386 18.24 110.874 18.168 110.394 18.024C109.93 17.88 109.522 17.664 109.17 17.376C108.834 17.088 108.57 16.728 108.378 16.296C108.186 15.864 108.09 15.368 108.09 14.808C108.09 14.136 108.234 13.576 108.522 13.128C108.826 12.68 109.218 12.32 109.698 12.048C110.178 11.76 110.714 11.56 111.306 11.448C111.914 11.336 112.53 11.28 113.154 11.28H115.482V9.936C115.482 8.944 115.282 8.216 114.882 7.752C114.482 7.288 113.85 7.056 112.986 7.056C112.346 7.056 111.698 7.192 111.042 7.464C110.386 7.736 109.85 8.032 109.434 8.352L108.786 7.344C109.25 6.928 109.858 6.568 110.61 6.264C111.378 5.96 112.17 5.808 112.986 5.808C114.33 5.808 115.298 6.152 115.89 6.84C116.498 7.512 116.802 8.456 116.802 9.672V14.544C116.802 15.776 117.114 16.728 117.738 17.4L116.922 18.192C116.586 17.936 116.322 17.648 116.13 17.328C115.938 16.992 115.786 16.64 115.674 16.272C115.37 16.88 114.906 17.36 114.282 17.712C113.658 18.064 112.874 18.24 111.93 18.24ZM111.93 16.992C112.41 16.992 112.858 16.928 113.274 16.8C113.69 16.656 114.058 16.456 114.378 16.2C114.714 15.944 114.978 15.624 115.17 15.24C115.362 14.856 115.466 14.416 115.482 13.92V12.504H113.154C112.706 12.504 112.258 12.536 111.81 12.6C111.378 12.648 110.986 12.76 110.634 12.936C110.282 13.096 109.994 13.328 109.77 13.632C109.562 13.936 109.458 14.328 109.458 14.808C109.458 15.608 109.674 16.176 110.106 16.512C110.538 16.832 111.146 16.992 111.93 16.992ZM129.167 18L127.871 15.12C127.615 14.56 127.303 14.112 126.935 13.776C126.567 13.424 126.047 13.232 125.375 13.2H125.351H125.159H122.327V18H121.007V0.576H122.327V8.184C122.695 7.464 123.183 6.888 123.791 6.456C124.415 6.024 125.183 5.808 126.095 5.808C126.687 5.808 127.231 5.896 127.727 6.072C128.239 6.232 128.679 6.472 129.047 6.792C129.415 7.096 129.703 7.48 129.911 7.944C130.119 8.392 130.223 8.896 130.223 9.456C130.223 10.416 129.983 11.168 129.503 11.712C129.023 12.24 128.407 12.624 127.655 12.864C127.975 13.072 128.247 13.32 128.471 13.608C128.695 13.88 128.887 14.176 129.047 14.496L130.655 18H129.167ZM126.095 6.984C125.519 6.984 124.999 7.128 124.535 7.416C124.071 7.704 123.679 8.08 123.359 8.544C123.039 9.008 122.791 9.536 122.615 10.128C122.455 10.72 122.375 11.328 122.375 11.952H125.159C125.975 11.952 126.623 11.88 127.103 11.736C127.599 11.576 127.975 11.376 128.231 11.136C128.487 10.896 128.655 10.632 128.735 10.344C128.815 10.04 128.855 9.744 128.855 9.456C128.855 8.704 128.615 8.104 128.135 7.656C127.655 7.208 126.975 6.984 126.095 6.984ZM134.527 13.2C134.671 14.448 135.063 15.392 135.703 16.032C136.359 16.672 137.311 16.992 138.559 16.992C139.231 16.992 139.871 16.88 140.479 16.656C141.087 16.432 141.695 16.16 142.303 15.84L142.927 16.848C142.367 17.232 141.711 17.56 140.959 17.832C140.223 18.104 139.423 18.24 138.559 18.24C136.751 18.24 135.383 17.712 134.455 16.656C133.543 15.584 133.087 14.056 133.087 12.072C133.087 11.24 133.207 10.448 133.447 9.696C133.703 8.944 134.055 8.28 134.503 7.704C134.967 7.128 135.519 6.672 136.159 6.336C136.799 5.984 137.511 5.808 138.295 5.808C138.887 5.808 139.447 5.896 139.975 6.072C140.503 6.232 140.959 6.472 141.343 6.792C141.743 7.096 142.055 7.48 142.279 7.944C142.519 8.392 142.639 8.896 142.639 9.456C142.639 10.16 142.487 10.752 142.183 11.232C141.879 11.712 141.479 12.096 140.983 12.384C140.503 12.672 139.943 12.88 139.303 13.008C138.679 13.136 138.031 13.2 137.359 13.2H134.527ZM138.295 6.984C137.719 6.984 137.191 7.128 136.711 7.416C136.247 7.704 135.847 8.08 135.511 8.544C135.175 9.008 134.911 9.536 134.719 10.128C134.543 10.72 134.455 11.328 134.455 11.952H137.359C138.175 11.952 138.839 11.88 139.351 11.736C139.863 11.576 140.263 11.376 140.551 11.136C140.839 10.896 141.031 10.632 141.127 10.344C141.223 10.04 141.271 9.744 141.271 9.456C141.271 8.704 140.991 8.104 140.431 7.656C139.887 7.208 139.175 6.984 138.295 6.984ZM162.711 10.2H155.103V18H153.639V1.584H164.391V2.952H155.103V8.832H162.711V10.2ZM171.215 18.24C170.319 18.24 169.503 18.088 168.767 17.784C168.031 17.48 167.399 17.056 166.871 16.512C166.359 15.952 165.959 15.296 165.671 14.544C165.383 13.792 165.239 12.968 165.239 12.072C165.239 11.176 165.383 10.352 165.671 9.6C165.959 8.832 166.359 8.168 166.871 7.608C167.399 7.048 168.031 6.608 168.767 6.288C169.503 5.968 170.319 5.808 171.215 5.808C172.111 5.808 172.919 5.968 173.639 6.288C174.375 6.592 174.999 7.024 175.511 7.584C176.039 8.128 176.447 8.784 176.735 9.552C177.023 10.304 177.167 11.12 177.167 12C177.167 12.896 177.023 13.728 176.735 14.496C176.447 15.264 176.039 15.928 175.511 16.488C174.999 17.032 174.375 17.464 173.639 17.784C172.919 18.088 172.111 18.24 171.215 18.24ZM171.215 7.056C170.511 7.056 169.879 7.176 169.319 7.416C168.759 7.656 168.271 7.992 167.855 8.424C167.455 8.856 167.143 9.376 166.919 9.984C166.711 10.592 166.607 11.264 166.607 12C166.607 12.752 166.711 13.44 166.919 14.064C167.143 14.672 167.455 15.192 167.855 15.624C168.271 16.056 168.759 16.392 169.319 16.632C169.879 16.872 170.511 16.992 171.215 16.992C171.903 16.992 172.527 16.872 173.087 16.632C173.663 16.376 174.151 16.032 174.551 15.6C174.951 15.152 175.255 14.624 175.463 14.016C175.687 13.392 175.799 12.704 175.799 11.952C175.799 11.216 175.687 10.552 175.463 9.96C175.255 9.352 174.951 8.832 174.551 8.4C174.151 7.968 173.663 7.64 173.087 7.416C172.527 7.176 171.903 7.056 171.215 7.056ZM185.559 18.24C184.663 18.24 183.847 18.088 183.111 17.784C182.375 17.48 181.743 17.056 181.215 16.512C180.703 15.952 180.303 15.296 180.015 14.544C179.727 13.792 179.583 12.968 179.583 12.072C179.583 11.176 179.727 10.352 180.015 9.6C180.303 8.832 180.703 8.168 181.215 7.608C181.743 7.048 182.375 6.608 183.111 6.288C183.847 5.968 184.663 5.808 185.559 5.808C186.455 5.808 187.263 5.968 187.983 6.288C188.719 6.592 189.343 7.024 189.855 7.584C190.383 8.128 190.791 8.784 191.079 9.552C191.367 10.304 191.511 11.12 191.511 12C191.511 12.896 191.367 13.728 191.079 14.496C190.791 15.264 190.383 15.928 189.855 16.488C189.343 17.032 188.719 17.464 187.983 17.784C187.263 18.088 186.455 18.24 185.559 18.24ZM185.559 7.056C184.855 7.056 184.223 7.176 183.663 7.416C183.103 7.656 182.615 7.992 182.199 8.424C181.799 8.856 181.487 9.376 181.263 9.984C181.055 10.592 180.951 11.264 180.951 12C180.951 12.752 181.055 13.44 181.263 14.064C181.487 14.672 181.799 15.192 182.199 15.624C182.615 16.056 183.103 16.392 183.663 16.632C184.223 16.872 184.855 16.992 185.559 16.992C186.247 16.992 186.871 16.872 187.431 16.632C188.007 16.376 188.495 16.032 188.895 15.6C189.295 15.152 189.599 14.624 189.807 14.016C190.031 13.392 190.143 12.704 190.143 11.952C190.143 11.216 190.031 10.552 189.807 9.96C189.599 9.352 189.295 8.832 188.895 8.4C188.495 7.968 188.007 7.64 187.431 7.416C186.871 7.176 186.247 7.056 185.559 7.056ZM199.04 18.24C198.224 18.24 197.496 18.08 196.856 17.76C196.232 17.44 195.696 17 195.248 16.44C194.816 15.88 194.488 15.232 194.264 14.496C194.04 13.744 193.928 12.936 193.928 12.072C193.928 11.176 194.056 10.352 194.312 9.6C194.584 8.832 194.96 8.168 195.44 7.608C195.936 7.048 196.528 6.608 197.216 6.288C197.904 5.968 198.672 5.808 199.52 5.808C200.192 5.808 200.792 5.832 201.32 5.88C201.848 5.928 202.296 5.976 202.664 6.024V0.551999H203.984V14.544C203.984 15.776 204.296 16.728 204.92 17.4L204.104 18.192C203.736 17.92 203.456 17.608 203.264 17.256C203.072 16.904 202.928 16.528 202.832 16.128C202.496 16.8 201.992 17.32 201.32 17.688C200.664 18.056 199.904 18.24 199.04 18.24ZM199.04 16.992C199.456 16.992 199.88 16.92 200.312 16.776C200.744 16.632 201.128 16.416 201.464 16.128C201.816 15.84 202.104 15.48 202.328 15.048C202.552 14.6 202.664 14.08 202.664 13.488V7.296C202.376 7.264 201.952 7.216 201.392 7.152C200.832 7.088 200.216 7.056 199.544 7.056C198.904 7.056 198.32 7.176 197.792 7.416C197.28 7.656 196.832 7.992 196.448 8.424C196.08 8.856 195.792 9.376 195.584 9.984C195.392 10.592 195.296 11.264 195.296 12C195.296 12.656 195.368 13.288 195.512 13.896C195.672 14.488 195.904 15.016 196.208 15.48C196.528 15.928 196.92 16.296 197.384 16.584C197.864 16.856 198.416 16.992 199.04 16.992Z" fill="#F9F9F9"/>
</svg>
