<svg width="40" height="40" viewBox="0 0 40 40" fill="none" xmlns="http://www.w3.org/2000/svg">
<path fill-rule="evenodd" clip-rule="evenodd" d="M14.1246 11.2453C15.8375 9.7772 17.0178 8.76912 18.0134 8.11159C18.9738 7.47724 19.6066 7.27777 20.2038 7.27777C20.801 7.27777 21.4337 7.47724 22.3942 8.11159C23.3898 8.76912 24.5701 9.7772 26.2829 11.2453L28.0898 12.7941C30.0567 14.48 30.6665 15.045 30.9931 15.7551C31.3197 16.4652 31.3518 17.2959 31.3518 19.8864V27.5482C31.3518 29.2942 31.3486 30.4527 31.2329 31.3136C31.1229 32.1313 30.9368 32.4525 30.7327 32.6566C30.5287 32.8607 30.2075 33.0468 29.3897 33.1568C28.6309 33.2588 27.6408 33.2733 26.2209 33.2754V24.9345C26.2209 23.5538 25.1016 22.4345 23.7209 22.4345H16.6866C15.3059 22.4345 14.1866 23.5538 14.1866 24.9345V33.2754C12.7668 33.2733 11.7767 33.2588 11.0178 33.1568C10.2001 33.0468 9.8789 32.8607 9.67484 32.6566C9.47078 32.4525 9.28461 32.1313 9.17467 31.3136C9.05893 30.4527 9.05574 29.2942 9.05574 27.5482V19.8864C9.05574 17.2959 9.08783 16.4652 9.41443 15.7551C9.74103 15.045 10.3509 14.48 12.3178 12.7941L14.1246 11.2453ZM17.1866 33.2757H23.2209V25.4345H17.1866V33.2757ZM20.2038 4.27777C18.7958 4.27777 17.5842 4.79975 16.36 5.60829C15.1889 6.38178 13.8668 7.51505 12.2471 8.90345L12.1723 8.96758L10.3654 10.5163L10.1333 10.715C8.49646 12.1163 7.32447 13.1196 6.68889 14.5015C6.0533 15.8834 6.05427 17.4262 6.05562 19.5809L6.05574 19.8864V27.5482L6.05574 27.6505C6.05568 29.2667 6.05562 30.6289 6.20142 31.7133C6.35609 32.8637 6.69915 33.9235 7.55352 34.7779C8.40789 35.6323 9.46768 35.9753 10.6181 36.13C11.7025 36.2758 13.0647 36.2758 14.6809 36.2757L14.7832 36.2757H25.6244L25.7266 36.2757C27.3429 36.2758 28.705 36.2758 29.7895 36.13C30.9399 35.9753 31.9997 35.6323 32.854 34.7779C33.7084 33.9235 34.0515 32.8637 34.2061 31.7133C34.3519 30.6289 34.3519 29.2667 34.3518 27.6505L34.3518 27.5482V19.8864L34.3519 19.5809C34.3533 17.4262 34.3543 15.8834 33.7187 14.5015C33.0831 13.1196 31.9111 12.1163 30.2742 10.715L30.0422 10.5163L28.2353 8.96758L28.1605 8.90344C26.5408 7.51504 25.2187 6.38178 24.0475 5.60829C22.8233 4.79975 21.6118 4.27777 20.2038 4.27777Z" fill="#000"/>
</svg>
